<svg width="27" height="27" viewBox="0 0 27 27" fill="none" xmlns="http://www.w3.org/2000/svg">
<path d="M26.4 6.67836C26.4 6.64982 26.4 6.64982 26.4 6.62128C26.3714 6.5642 26.3714 6.50712 26.3429 6.45004V6.4215C26.3144 6.36442 26.2573 6.30734 26.2287 6.2788L26.2002 6.25026C26.1717 6.22172 26.1146 6.19318 26.086 6.16464L26.0575 6.1361H26.029L26.0004 6.10756L13.8709 0.08562C13.6426 -0.02854 13.3572 -0.02854 13.1003 0.08562L9.01913 2.11196L21.2057 8.36222L21.2342 8.39076C21.2628 8.39076 21.2628 8.4193 21.2913 8.4193C21.3199 8.44784 21.3199 8.47638 21.3484 8.50492C21.3484 8.53346 21.3484 8.53346 21.3484 8.562V8.59054V15.2118C21.3484 15.326 21.2913 15.4116 21.2057 15.4687L18.7513 16.753C18.6086 16.8386 18.4373 16.7815 18.3517 16.6388C18.3232 16.6103 18.3232 16.5532 18.3232 16.4961V10.0175L5.99389 3.65312L5.96535 3.62458L1.02793 6.07902L0.999389 6.10756H0.970849L0.942309 6.1361C0.913769 6.16464 0.856689 6.19318 0.828149 6.22172L0.799609 6.25026C0.742529 6.30734 0.713989 6.36442 0.656909 6.4215V6.45004C0.628369 6.50712 0.599829 6.5642 0.599829 6.62128C0.599829 6.64982 0.599829 6.64982 0.599829 6.67836C0.599829 6.73544 0.571289 6.76398 0.571289 6.82106V6.8496V20.1492C0.571289 20.4632 0.742529 20.7771 1.05647 20.9198L13.0718 26.9132C13.243 26.9988 13.4428 27.0274 13.6426 26.9703L13.6997 26.9417C13.7568 26.9417 13.7853 26.9132 13.8424 26.8847L25.9433 20.8913C26.2287 20.7486 26.4285 20.4632 26.4285 20.1207V6.8496V6.82106C26.4 6.76398 26.4 6.73544 26.4 6.67836Z" fill="#71717A"/>
</svg>
