<svg width="24" height="24" viewBox="0 0 24 24" fill="none" xmlns="http://www.w3.org/2000/svg">
<path d="M5.47668 0.000466751C5.19523 0.00885454 4.9281 0.126519 4.73189 0.328469L0.398553 4.66185C0.196761 4.86484 0.0834961 5.13946 0.0834961 5.42569C0.0834961 5.71191 0.196761 5.98653 0.398553 6.18952L4.73189 10.5249C4.93572 10.728 5.2118 10.8419 5.49954 10.8417C5.78727 10.8414 6.06315 10.727 6.26661 10.5235C6.47007 10.3201 6.58449 10.0442 6.58475 9.75644C6.58501 9.46871 6.4711 9.19256 6.26801 8.98873L3.79032 6.51115H20.6708V9.82879C20.6574 9.97863 20.6753 10.1297 20.7234 10.2722C20.7715 10.4148 20.8488 10.5457 20.9503 10.6567C21.0518 10.7678 21.1753 10.8565 21.313 10.9171C21.4507 10.9778 21.5995 11.0092 21.7499 11.0092C21.9004 11.0092 22.0492 10.9778 22.1869 10.9171C22.3245 10.8565 22.4481 10.7678 22.5496 10.6567C22.6511 10.5457 22.7284 10.4148 22.7765 10.2722C22.8246 10.1297 22.8425 9.97863 22.829 9.82879V6.51115C22.829 5.32957 21.8524 4.34234 20.6708 4.34234H3.77973L6.26801 1.85615C6.42332 1.70347 6.52902 1.50762 6.57131 1.29398C6.6136 1.08034 6.59053 0.858925 6.5051 0.658595C6.41967 0.458265 6.27584 0.288274 6.09239 0.170903C5.90894 0.0535322 5.69437 -0.00592893 5.47668 0.000466751ZM18.4872 12.9962C18.2717 12.9967 18.0611 13.0615 17.8825 13.1823C17.704 13.3031 17.5655 13.4744 17.4848 13.6743C17.4042 13.8743 17.385 14.0937 17.4298 14.3046C17.4745 14.5155 17.5812 14.7082 17.7361 14.8582L20.2223 17.3465H3.33328V14.1239C3.33497 13.9795 3.30778 13.8363 3.2533 13.7026C3.19881 13.5688 3.11814 13.4473 3.01603 13.3452C2.91392 13.2431 2.79242 13.1624 2.65868 13.1079C2.52494 13.0534 2.38165 13.0263 2.23725 13.028C1.94993 13.0313 1.67572 13.1487 1.47494 13.3542C1.27416 13.5598 1.16325 13.8366 1.16661 14.1239V17.3465C1.16661 18.5281 2.15169 19.5047 3.33328 19.5047H20.2223L17.7361 21.9929C17.6283 22.0915 17.5416 22.2109 17.4812 22.344C17.4208 22.477 17.3879 22.621 17.3845 22.7671C17.3811 22.9131 17.4073 23.0583 17.4615 23.194C17.5157 23.3297 17.5968 23.4531 17.6999 23.5566C17.803 23.6602 17.926 23.7418 18.0615 23.7966C18.197 23.8513 18.3421 23.8781 18.4882 23.8753C18.6343 23.8725 18.7783 23.8403 18.9116 23.7804C19.0449 23.7206 19.1647 23.6343 19.2638 23.5269L23.5971 19.1935C23.6983 19.0929 23.7786 18.9732 23.8334 18.8414C23.8882 18.7096 23.9164 18.5683 23.9164 18.4256C23.9164 18.2828 23.8882 18.1415 23.8334 18.0097C23.7786 17.8779 23.6983 17.7582 23.5971 17.6575L19.2638 13.3242C19.1628 13.2204 19.0421 13.1379 18.9087 13.0816C18.7753 13.0252 18.632 12.9962 18.4872 12.9962Z" fill="#71717A"/>
</svg>
